<svg width="35" height="35" viewBox="0 0 35 35" fill="none" xmlns="http://www.w3.org/2000/svg">
<g filter="url(#filter0_d_43_110)">
<rect x="4" y="4" width="27" height="27" rx="13.5" fill="#329530"/>
</g>
<path d="M12.678 20.894C12.7818 20.9982 12.8613 21.124 12.9109 21.2625C12.9605 21.4009 12.979 21.5486 12.965 21.695C12.8947 22.3726 12.7615 23.0421 12.567 23.695C13.962 23.372 14.814 22.998 15.201 22.802C15.4205 22.6908 15.6733 22.6645 15.911 22.728C16.5924 22.9097 17.2948 23.0011 18 23C21.996 23 25 20.193 25 17C25 13.808 21.996 11 18 11C14.004 11 11 13.808 11 17C11 18.468 11.617 19.83 12.678 20.894ZM12.185 24.799C11.9481 24.846 11.7104 24.889 11.472 24.928C11.272 24.96 11.12 24.752 11.199 24.566C11.2878 24.3566 11.3692 24.1441 11.443 23.929L11.446 23.919C11.694 23.199 11.896 22.371 11.97 21.6C10.743 20.37 10 18.76 10 17C10 13.134 13.582 10 18 10C22.418 10 26 13.134 26 17C26 20.866 22.418 24 18 24C17.2077 24.0011 16.4186 23.8982 15.653 23.694C15.133 23.957 14.014 24.436 12.185 24.799Z" fill="white"/>
<path d="M14 14.5C14 14.3674 14.0527 14.2402 14.1464 14.1464C14.2402 14.0527 14.3674 14 14.5 14H21.5C21.6326 14 21.7598 14.0527 21.8536 14.1464C21.9473 14.2402 22 14.3674 22 14.5C22 14.6326 21.9473 14.7598 21.8536 14.8536C21.7598 14.9473 21.6326 15 21.5 15H14.5C14.3674 15 14.2402 14.9473 14.1464 14.8536C14.0527 14.7598 14 14.6326 14 14.5ZM14 17C14 16.8674 14.0527 16.7402 14.1464 16.6464C14.2402 16.5527 14.3674 16.5 14.5 16.5H21.5C21.6326 16.5 21.7598 16.5527 21.8536 16.6464C21.9473 16.7402 22 16.8674 22 17C22 17.1326 21.9473 17.2598 21.8536 17.3536C21.7598 17.4473 21.6326 17.5 21.5 17.5H14.5C14.3674 17.5 14.2402 17.4473 14.1464 17.3536C14.0527 17.2598 14 17.1326 14 17ZM14 19.5C14 19.3674 14.0527 19.2402 14.1464 19.1464C14.2402 19.0527 14.3674 19 14.5 19H18.5C18.6326 19 18.7598 19.0527 18.8536 19.1464C18.9473 19.2402 19 19.3674 19 19.5C19 19.6326 18.9473 19.7598 18.8536 19.8536C18.7598 19.9473 18.6326 20 18.5 20H14.5C14.3674 20 14.2402 19.9473 14.1464 19.8536C14.0527 19.7598 14 19.6326 14 19.5Z" fill="white"/>
<defs>
<filter id="filter0_d_43_110" x="0" y="0" width="35" height="35" filterUnits="userSpaceOnUse" color-interpolation-filters="sRGB">
<feFlood flood-opacity="0" result="BackgroundImageFix"/>
<feColorMatrix in="SourceAlpha" type="matrix" values="0 0 0 0 0 0 0 0 0 0 0 0 0 0 0 0 0 0 127 0" result="hardAlpha"/>
<feOffset/>
<feGaussianBlur stdDeviation="2"/>
<feComposite in2="hardAlpha" operator="out"/>
<feColorMatrix type="matrix" values="0 0 0 0 0 0 0 0 0 0 0 0 0 0 0 0 0 0 0.25 0"/>
<feBlend mode="normal" in2="BackgroundImageFix" result="effect1_dropShadow_43_110"/>
<feBlend mode="normal" in="SourceGraphic" in2="effect1_dropShadow_43_110" result="shape"/>
</filter>
</defs>
</svg>
